PathFileType	4	(X/Y/Z)	Patient4_TMGait_0pt5_01_right_03.trc.trc
DataRate	CameraRate	NumFrames	NumMarkers	Units	OrigDataRate	OrigDataStartFrame	OrigNumFrames
73.684210526316	73.684210526316	5	33	mm	73.684210526316	53	       141
Frame#	Time	L.ASIS			Sacral			L.Shoulder			Chest			R.Shoulder			Neck			R.ASIS			R.Thigh.Superior			R.Thigh.Lateral			R.Thigh.Inferior			R.Patella			L.Thigh.Superior			L.Thigh.Lateral			L.Thigh.Inferior			L.Patella			L.Shank.Superior			L.Shank.Lateral			L.Shank.Inferior			R.Shank.Superior			R.Shank.Lateral			R.Shank.Inferior			R.Heel			R.Midfoot.Superior			R.Midfoot.Lateral			R.Toe			L.Heel			L.Midfoot.Lateral			L.Midfoot.Superior			L.Toe			L.Elbow			L.Wrist			R.Elbow			R.Wrist			
		X1	Y1	Z1	X2	Y2	Z2	X3	Y3	Z3	X4	Y4	Z4	X5	Y5	Z5	X6	Y6	Z6	X7	Y7	Z7	X8	Y8	Z8	X9	Y9	Z9	X10	Y10	Z10	X11	Y11	Z11	X12	Y12	Z12	X13	Y13	Z13	X14	Y14	Z14	X15	Y15	Z15	X16	Y16	Z16	X17	Y17	Z17	X18	Y18	Z18	X19	Y19	Z19	X20	Y20	Z20	X21	Y21	Z21	X22	Y22	Z22	X23	Y23	Z23	X24	Y24	Z24	X25	Y25	Z25	X26	Y26	Z26	X27	Y27	Z27	X28	Y28	Z28	X29	Y29	Z29	X30	Y30	Z30	X31	Y31	Z31	X32	Y32	Z32	X33	Y33	Z33	

53	3.915714285714	756.525100617724	968.177283486786	372.434039265345	552.954826744223	1010.022401371963	542.860390040151	716.958452939701	1440.294687669221	356.779365504996	830.664699878102	1368.348913148759	509.719524267439	759.639014309863	1440.194703923093	690.812113278596	729.970515159123	1499.340733081396	508.070929550447	788.147043774676	943.345512522173	643.980776336110	818.495664399534	739.974975476698	610.212092348405	735.758836273225	634.731036510848	672.534045129267	804.409287265138	579.765623163232	587.557139612041	800.178636403427	492.590870600373	591.824502257206	843.432841102815	787.138240458036	399.995900788172	799.421536353688	659.730238656302	324.505807430916	902.331950341750	599.011198457897	384.949557504094	921.567175843072	515.633531256579	379.016957245943	874.080072972823	441.709336764593	368.810495691732	754.761357228990	360.790099096994	314.203866076401	781.238796946688	233.101295162076	368.064407302819	772.846864913964	404.901206861867	598.981835807343	702.488641345116	300.729157607366	659.463819443785	743.071583724183	207.105682222456	594.531906522778	604.991771542880	43.373366317116	563.213890270992	777.779410868789	97.155597436467	597.919099617883	688.959103363544	36.463400087229	637.331180258502	897.135159588536	43.408825787870	624.598893895038	619.605952858592	110.170098195753	397.964814631308	690.618830206066	90.160986056648	318.571581803097	785.950929279058	130.603760835240	343.959296628677	895.831392589519	52.559557204376	316.065077152690	667.998875627253	1085.692073955042	244.636278031550	725.107402815006	832.143418079005	226.085685271713	812.440876910453	1106.097830449999	826.699960852592	1041.786326377383	990.853060108658	799.707346153071	
54	3.929285714286	753.928376079928	968.542908224789	372.348063955402	551.403752781615	1010.794565781654	543.997931803585	715.791149445409	1440.509310773775	357.226237619143	830.291879844150	1368.067695077126	509.273823241529	761.000345733479	1440.286050483763	690.902124099341	729.966843121199	1499.389204481284	508.464122729638	786.623683037162	943.062991274470	643.783849766527	814.858343121044	739.310650698381	609.552821989414	731.714367311620	634.717735001994	672.711338643422	799.140790936777	579.173216213079	587.256112103421	794.200346701658	492.267752707458	591.709353054720	840.709549677340	787.873895917646	400.476277496735	796.986309698862	660.535426601758	324.570767294583	898.889204162723	599.697369223613	386.234827385312	919.649677398299	518.606663228754	380.136379509955	876.740236367818	444.202772586385	369.056613277468	764.317473756493	355.173618179169	313.238816719903	799.726410657931	229.503183437194	367.220120561115	766.755974940707	404.678145661423	598.886184921116	696.228008852477	300.685916872985	659.464774602546	736.490969303845	206.971206181750	594.429232572521	598.146485064095	43.307860293298	563.176642394026	770.868148414679	97.120414716609	597.849534370753	682.085810198251	36.449317413099	637.294148413316	890.258659599339	43.419732785556	624.620975993104	647.715743042676	94.750671147239	395.930344228393	720.647163061129	80.299917279709	317.007441762463	812.406218679320	127.642295428962	343.088563755335	927.976968477361	58.223728743667	315.981546259809	658.772678936929	1087.327549127124	244.931678104909	706.123858222855	832.046531831121	226.144087980137	819.803264726622	1108.008689744861	827.030083883239	1054.498925534987	1006.274942529873	795.907748108701	
55	3.942857142857	751.458620527106	968.689760418704	372.129552233450	549.921470230014	1011.403556852285	544.955611931085	714.706628447733	1440.614196925375	357.515626518608	829.919561195528	1367.665350852961	508.719388743038	762.232765499230	1440.230354911313	690.833906925372	729.951595684928	1499.320794011049	508.710653822486	785.145135650478	942.732615002294	643.501896298351	811.431163420366	738.625991411673	609.008463878355	727.845660994404	634.643825796830	672.862912566611	794.177797288393	578.560739132983	587.019695312065	788.541951278368	491.883431047289	591.629014098680	837.554939042564	787.884061983815	400.834809731948	793.878829843018	660.848179742466	324.351319425074	894.569748122483	599.610615932513	387.402235738219	916.762654061780	521.015884507584	381.147223152176	878.508276538319	446.525275014765	369.231660455297	773.681429300585	349.687433004457	312.214437462382	817.915290648058	226.744450244556	366.581585617997	760.920100494789	404.389718003984	598.792624105704	690.158524174249	300.619119447367	659.468255363353	730.002669681711	206.780148153226	594.328501308273	591.302424037953	43.256234757199	563.148366071920	763.960127991614	97.078932340624	597.778829223997	675.215600220889	36.432397468852	637.262941122859	883.388731384829	43.398850054775	624.642711649339	676.359199040771	80.832165358075	394.165539411787	751.021576809357	71.835123218338	315.897741869484	838.709590644084	125.887181643511	342.658031928340	959.439030885379	65.313163143581	316.762574020936	649.634538518731	1089.037432432961	245.170076054408	687.893190824589	832.476071940267	226.411033433641	826.810677001241	1109.765526979513	826.914893701077	1065.946913040147	1021.804369748769	791.520417912745	
56	3.956428571429	749.119436481722	968.629402465085	371.789607292257	548.500334174074	1011.848958338216	545.731982944818	713.681736037266	1440.611092061108	357.638088594301	829.526313303662	1367.162078201196	508.058811251844	763.290907152037	1440.049015308153	690.603622562716	729.902072227195	1499.147991109337	508.796654469455	783.743109364195	942.363864886586	643.142085086788	808.258334821438	737.924617707850	608.566341313065	724.195541722341	634.503439821916	672.964675055450	789.564207399063	577.925480882235	586.820102803617	783.243245259965	491.427487333612	591.547645015224	834.014512181035	787.228514316790	401.052684854755	790.227796946759	660.729847643121	323.824938987325	889.596567752409	598.877206944197	388.359254518092	913.114032875767	522.912587405736	381.992796322102	879.475697133655	448.704227476149	369.309493615892	782.718743682527	344.557059584999	311.179576526894	835.448280919534	224.976280163252	366.173838739994	755.373795012668	404.028518206871	598.678356348904	684.307220763683	300.529186003668	659.459312899067	723.622270723397	206.531716402483	594.217150979522	584.457947351507	43.219997568627	563.130750957200	757.054698774993	97.031226506069	597.703487401240	668.349157427748	36.414697219148	637.240873019327	876.524945899111	43.350910879256	624.663853137948	704.867008232453	68.857043874887	392.781439381714	781.052932820216	65.022741201981	315.327046135887	864.310518877897	125.430340220969	342.685191119476	989.558719254132	73.661850005182	318.392278862289	640.681695971416	1090.783628849629	245.390782195665	670.489030520286	833.311523652202	226.868378419195	833.462778094306	1111.367004761995	826.344475248102	1076.093956618947	1037.308949856824	786.580764226389	
57	3.970000000000	746.911277139158	968.385410941535	371.337262799437	547.133807982857	1012.135351519307	546.326565665753	712.687261111599	1440.506542312518	357.587169193189	829.090227804225	1366.583671705214	507.293530564516	764.138227899340	1439.767900714469	690.209797233697	729.792149676476	1498.886118803872	508.711028381033	782.447266787812	941.963710429671	642.703146256703	805.369204357916	737.210017068797	608.187302364600	720.801883631563	634.292408214877	672.987543787274	785.324594929335	577.264869279134	586.615630563840	778.327792082734	490.891833326843	591.424029630552	830.175020552273	786.012846505393	401.109678012471	786.198059360005	660.256185167892	323.005704098081	884.236502871127	597.653588877617	389.034022041345	908.946942981409	524.362156131639	382.638044480108	879.764089277870	450.746603255535	369.275006265775	791.256966291802	339.954867367491	310.198643039620	851.955657406468	224.232034483360	365.995953193334	750.136299610234	403.588775285388	598.517072907292	678.690712890483	300.416836388667	659.419798434154	717.359946111146	206.227340713899	594.080771445898	577.612400596146	43.199181608473	563.123612528484	750.150551669419	96.977431641499	597.619841637505	661.487228509079	36.398631746615	637.230006654378	869.666572166730	43.281913691124	624.683859494065	732.490499383636	59.090277132274	391.865274685026	809.974525459492	59.951973752429	315.327222032520	888.633219855781	126.210171692226	343.130698324211	1017.694580720206	82.926063079010	320.736031292694	632.011187802998	1092.526213952496	245.617888812088	653.974137409201	834.441095742214	227.488875980114	839.750872299924	1112.818533587090	825.315053100272	1084.920720613334	1052.653296836456	781.130820626497	
